<?xml version="1.0" encoding="iso-8859-1"?>
<!-- Generator: Adobe Illustrator 18.0.0, SVG Export Plug-In . SVG Version: 6.00 Build 0)  -->
<!DOCTYPE svg PUBLIC "-//W3C//DTD SVG 1.1//EN" "http://www.w3.org/Graphics/SVG/1.1/DTD/svg11.dtd">
<svg version="1.1" id="Capa_1" xmlns="http://www.w3.org/2000/svg" xmlns:xlink="http://www.w3.org/1999/xlink" x="0px" y="0px"
	 viewBox="0 0 298.188 298.188" style="enable-background:new 0 0 298.188 298.188;" xml:space="preserve">
<path d="M139.653,2.514c-0.267,0.11-26.824,11.191-35.699,13.873c-20.167,6.094-32.51,23.906-30.018,43.317l3.438,26.776
	c-3.772,5.881-4.199,15.287-0.602,25.486c3.98,11.278,10.938,18.887,18.568,20.037c3.554,7.133,7.753,14.235,12.753,20.6v22.084
	H84.728c-28.934,0-52.634,23.871-52.634,52.805v38.209c0,2.963,1.792,5.658,4.475,6.917c41.587,19.521,80.838,25.57,113.467,25.569
	c17.176,0,32.551-1.677,45.462-3.946c40.66-7.147,65.878-21.281,66.942-21.879c2.407-1.354,3.654-3.9,3.654-6.661v-38.209
	c0-28.934-23.034-52.805-51.968-52.805h-23.032v-23.386c4-6.044,8.787-12.688,12.104-19.355c7.502-1.325,14.615-8.873,18.535-19.981
	c3.557-10.083,3.202-19.4-0.453-25.293l3.405-27.095c2.425-19.33-9.904-37.092-29.986-43.193
	c-8.814-2.677-35.195-13.751-35.462-13.859C156.856,1.558,152.779,0,149.279,0S141.952,1.563,139.653,2.514z M149.082,176.239
	c9.643,0,19.012-3.705,26.012-9.605v12.904l-26.01,22.552l-24.99-22.552v-12.164C131.094,172.839,139.849,176.239,149.082,176.239z
	 M144.418,217.98c1.436,1.246,3.223,1.87,5.009,1.87s3.572-0.624,5.009-1.87l28.518-24.754l-33.527,77.369l-33.527-77.369
	L144.418,217.98z M100.504,196.137l30.151,69.58l-42.272-46.686L100.504,196.137z M198.35,196.137l12.121,22.895l-42.272,46.686
	L198.35,196.137z M108.374,31.018c8.881-2.684,31.948-12.75,36.488-14.117c2.928-0.882,6.212-0.881,9.141,0.004
	c4.532,1.369,27.431,11.424,36.257,14.103c12.825,3.897,20.748,14.863,19.268,26.668l-1.249,9.953
	c-5.755-8.896-14.199-13.409-25.275-13.409c-7.691,0-15.331,2.183-22.072,4.109c-4.577,1.309-8.901,2.544-11.696,2.576
	c-2.75,0-7.154-1.189-11.817-2.448c-6.663-1.799-14.217-3.838-21.766-3.838c-11.161,0-19.602,4.438-25.267,13.186l-1.29-10.047
	C87.573,45.902,95.5,34.906,108.374,31.018z M208.731,96.12c0.35,1.986,0.363,5.808-1.385,10.761
	c-2.055,5.822-5.022,8.898-6.377,9.787c-1.58-0.518-3.295-0.514-4.887,0.039c-2,0.692-3.623,2.184-4.482,4.117
	c-8.227,18.514-24.21,40.132-42.176,40.132c-18.005,0-33.999-21.683-42.225-40.252c-0.89-2.01-2.603-3.538-4.7-4.196
	c-0.748-0.234-1.519-0.35-2.286-0.35c-0.915,0-1.824,0.164-2.684,0.486c-1.371-0.918-4.307-3.991-6.344-9.762
	c-1.716-4.867-1.733-8.643-1.401-10.657c3.315-15.646,19.088-26.323,25.868-26.323c5.522,0,11.755,1.683,17.781,3.311
	c5.67,1.529,11.026,2.977,15.804,2.976l0.279-0.002c4.743-0.056,10.024-1.564,15.614-3.162c6.059-1.731,12.323-3.521,17.873-3.521
	C187.202,69.503,204.603,77.88,208.731,96.12z M47.094,227.492c0-20.506,17.128-36.805,37.634-36.805H86.3l-13.93,26.119
	c-1.504,2.842-1.069,6.225,1.089,8.608l50.712,56.204c-23.563-2.452-50.078-8.633-77.078-20.822V227.492z M251.094,261.022
	c-8,3.985-29.081,13.024-58.333,18.167c-5.692,1.001-11.844,1.874-18.485,2.524l51.091-56.394c2.158-2.384,2.607-5.671,1.103-8.513
	l-13.916-26.119h1.572c20.506,0,36.968,16.299,36.968,36.805V261.022z"/>
<g>
</g>
<g>
</g>
<g>
</g>
<g>
</g>
<g>
</g>
<g>
</g>
<g>
</g>
<g>
</g>
<g>
</g>
<g>
</g>
<g>
</g>
<g>
</g>
<g>
</g>
<g>
</g>
<g>
</g>
</svg>
