<?xml version="1.0" encoding="iso-8859-1"?>
<!-- Generator: Adobe Illustrator 19.0.0, SVG Export Plug-In . SVG Version: 6.00 Build 0)  -->
<svg version="1.1" id="Layer_1" xmlns="http://www.w3.org/2000/svg" xmlns:xlink="http://www.w3.org/1999/xlink" x="0px" y="0px"
	 viewBox="0 0 428.035 428.035" style="enable-background:new 0 0 428.035 428.035;" xml:space="preserve">
<g>
	<g>
		<g>
			<path d="M372.348,61.489l-33.655-45.865c-12.49-17.021-36.5-20.708-53.521-8.218l-41.158,30.201
				c-9.355-3.447-19.46-5.33-29.997-5.33s-20.641,1.884-29.997,5.33L142.863,7.405c-17.022-12.49-41.032-8.803-53.521,8.219
				L55.687,61.489c-8.724,11.888-6.149,28.657,5.74,37.381c4.757,3.49,10.294,5.172,15.786,5.172
				c8.233,0,16.362-3.781,21.595-10.912l26.665-36.338l17.259,12.664c-9.903,14.124-15.724,31.309-15.724,49.831
				c0,36.788,22.949,68.314,55.282,81.02h-27.681c-24.271,0-44.355,18.216-46.719,42.371L94.421,380.334
				c-1.192,12.182,2.841,24.368,11.063,33.435c8.222,9.067,19.958,14.266,32.198,14.266h152.669c12.24,0,23.976-5.2,32.198-14.266
				s12.255-21.253,11.063-33.435l-13.468-137.656c-2.363-24.155-22.448-42.371-46.719-42.371h-27.681
				c32.333-12.706,55.282-44.232,55.282-81.02c0-18.521-5.821-35.706-15.724-49.831l17.259-12.664l26.665,36.338
				c5.233,7.132,13.361,10.912,21.595,10.912c5.491,0,11.03-1.682,15.786-5.172C378.497,90.146,381.072,73.377,372.348,61.489z
				 M118.817,401.676c-4.888-5.39-7.19-12.347-6.482-19.589L124,262.859c3.782,40.042,9.162,104.056,9.458,146.829
				C127.836,408.766,122.742,406.003,118.817,401.676z M304.034,262.859L315.7,382.086c0.708,7.243-1.594,14.2-6.483,19.59
				c-3.925,4.328-9.019,7.09-14.641,8.012C294.872,366.915,300.252,302.901,304.034,262.859z M270.085,40.803l8.345,11.372
				l-4.963,3.641c-3.557-3.334-7.394-6.373-11.471-9.078L270.085,40.803z M214.017,50.276c26.01,0,48.698,14.469,60.458,35.777
				H153.559C165.319,64.745,188.007,50.276,214.017,50.276z M157.95,40.802l8.089,5.935c-4.077,2.705-7.913,5.744-11.471,9.078
				l-4.963-3.642L157.95,40.802z M135.095,41.525l-6.229-4.57c-1.924-1.413-4.332-2.002-6.69-1.64
				c-2.36,0.362-4.479,1.647-5.891,3.572L84.296,82.482c-2.851,3.885-8.333,4.728-12.221,1.876
				c-3.886-2.852-4.728-8.334-1.876-12.221l33.656-45.865c3.206-4.369,7.921-7.229,13.278-8.051c1.043-0.16,2.086-0.239,3.123-0.239
				c4.283,0,8.441,1.354,11.96,3.935l11.223,8.236L135.095,41.525z M261.237,218.307h12.188c6.123,0,11.813,1.883,16.5,5.125
				c-0.042,0.234-0.085,0.469-0.112,0.71c-0.13,1.202-12.828,119.054-13.24,185.893H151.462
				c-0.412-66.839-13.11-184.691-13.24-185.893c-0.026-0.241-0.069-0.476-0.114-0.71c4.687-3.243,10.377-5.125,16.5-5.125h9.762
				l41.033,59.311c1.681,2.43,4.447,3.879,7.401,3.879s5.721-1.45,7.401-3.879L261.237,218.307z M186.259,218.306h53.092
				l-26.546,38.371L186.259,218.306z M214.017,188.296c-38.052,0-69.01-30.958-69.01-69.01c0-5.235,0.605-10.329,1.715-15.233
				h133.883c0.236,0,0.468-0.017,0.699-0.035c1.115,4.915,1.723,10.021,1.723,15.269
				C283.028,157.339,252.07,188.296,214.017,188.296z M355.96,84.358c-3.887,2.853-9.369,2.01-12.221-1.876L311.75,38.887
				c-1.412-1.925-3.531-3.209-5.89-3.571c-0.455-0.07-0.911-0.104-1.366-0.104c-1.903,0-3.771,0.604-5.324,1.744l-6.229,4.57
				l-8.344-11.372l11.223-8.235c4.37-3.206,9.726-4.519,15.083-3.696c5.356,0.822,10.072,3.682,13.278,8.051l33.655,45.865
				C360.688,76.024,359.846,81.506,355.96,84.358z"/>
			<path d="M199.64,125.294c0-4.971-4.029-9-9-9h-13.617c-4.971,0-9,4.029-9,9c0,4.971,4.029,9,9,9h13.617
				C195.611,134.294,199.64,130.265,199.64,125.294z"/>
			<path d="M251.012,116.294h-13.617c-4.971,0-9,4.029-9,9c0,4.971,4.029,9,9,9h13.617c4.971,0,9-4.029,9-9
				C260.012,120.323,255.982,116.294,251.012,116.294z"/>
			<path d="M226.409,154.595h-24.783c-4.971,0-9,4.029-9,9c0,4.971,4.029,9,9,9h24.783c4.971,0,9-4.029,9-9
				C235.409,158.624,231.38,154.595,226.409,154.595z"/>
			<path d="M161.933,310.037c0,4.971,4.029,9,9,9h83.744c4.971,0,9-4.029,9-9s-4.03-9-9-9h-83.744
				C165.962,301.037,161.933,305.066,161.933,310.037z"/>
		</g>
	</g>
</g>
<g>
</g>
<g>
</g>
<g>
</g>
<g>
</g>
<g>
</g>
<g>
</g>
<g>
</g>
<g>
</g>
<g>
</g>
<g>
</g>
<g>
</g>
<g>
</g>
<g>
</g>
<g>
</g>
<g>
</g>
</svg>
